<?xml version="1.0" encoding="utf-8"?>
<!-- Generator: Adobe Illustrator 19.2.1, SVG Export Plug-In . SVG Version: 6.00 Build 0)  -->
<svg version="1.1" id="Layer_1" xmlns="http://www.w3.org/2000/svg" xmlns:xlink="http://www.w3.org/1999/xlink" x="0px" y="0px"
	 viewBox="0 0 328.8 55" style="enable-background:new 0 0 328.8 55;" xml:space="preserve">
<style type="text/css">
	.st0{opacity:0.8;}
	.st1{fill:#FFFFFF;}
	.st2{fill:#231F20;}
	.st3{fill:url(#SVGID_1_);}
	.st4{fill:url(#SVGID_2_);}
	.st5{fill:url(#SVGID_3_);stroke:#FFFFFF;stroke-width:0.66;}
	.st6{fill:#808080;}
	.st7{clip-path:url(#SVGID_5_);}
	.st8{fill:#8A8A8A;}
	.st9{fill:#878787;}
	.st10{clip-path:url(#SVGID_7_);}
	.st11{fill:#8C8C8C;}
	.st12{fill:#888888;}
	.st13{clip-path:url(#SVGID_9_);}
	.st14{clip-path:url(#SVGID_11_);}
	.st15{fill:#858585;}
	.st16{fill:#AFAFAF;}
	.st17{clip-path:url(#SVGID_13_);}
	.st18{clip-path:url(#SVGID_15_);}
</style>
<title>logo</title>
<g>
	<g class="st0">
		<path class="st1" d="M72,27c0.6,1.4,1.5,3,4.7,3.7c0.9,0.2,1.9,0.3,2.9,0.3c4,0,6.8-1.6,6.8-4s-2.2-2.7-5.9-3.2
			c-1.1-0.1-2.2-0.3-3.2-0.4c-1.2-0.1-2.4-0.4-3.5-0.8c-1.3-0.5-2.2-1.8-2.2-3.3c0-2.6,2.5-5,8-5c3.3,0,6.1,1,8.1,3.4l-1.6,0.9
			c-0.6-0.7-2.1-2.8-6.7-2.8c-3.7,0-6.1,1.4-6.1,3.5c0,1.5,1.4,2,2.5,2.2c0.8,0.2,5,0.7,5.9,0.9c1.3,0.2,2.6,0.5,3.9,0.9
			c1.5,0.6,2.5,2,2.5,3.7c0,0.9-0.3,1.8-0.8,2.5c-0.8,1.3-2.9,3.1-7.7,3.1c-2.1,0.1-4.2-0.3-6.1-1.2c-1.6-0.7-2.8-2-3.4-3.6L72,27z"
			/>
		<path class="st1" d="M88.8,14.7h16.8v1.5h-7.4V32h-1.6V16.1h-7.8V14.7z"/>
		<path class="st1" d="M119.7,14.7c1.3-0.1,2.6,0.1,3.8,0.7c1.4,0.9,2.2,2.4,2.2,4.1c0,1.4-0.6,2.8-1.7,3.7
			c-1.3,0.8-2.9,1.3-4.5,1.2l7,7.7h-2.3l-6.8-7.7h-7.9V32h-1.7V14.7H119.7L119.7,14.7z M109.4,22.8h9.3c1.8,0,3.3,0,4.3-1.1
			c0.6-0.6,0.8-1.5,0.8-2.3c0-1-0.4-1.9-1.2-2.5c-0.9-0.6-1.9-0.8-2.9-0.7h-10.3V22.8z"/>
		<path class="st1" d="M137.7,14.7l8.7,17.3h-1.8l-2.2-4.5h-11.1L129,32h-1.7l8.5-17.3H137.7L137.7,14.7z M136.7,16.2l-4.9,9.9h9.8
			L136.7,16.2z"/>
		<path class="st1" d="M165.8,27.3c-0.3,0.6-0.7,1.1-1.1,1.7c-2,2.3-4.9,3.6-7.9,3.4c-6.9,0-9.7-5-9.7-9.2c0-5.2,4.3-9.1,9.7-9.1
			c1.8,0,3.5,0.4,5.1,1.2c1.5,0.8,2.7,2,3.5,3.5l-1.5,0.8c-0.3-0.5-0.6-1-1-1.4c-1.5-1.7-3.8-2.7-6.1-2.6c-4.7,0-8,3.2-8,7.7
			c0,4,3,7.5,8,7.5c3.1,0.1,6-1.6,7.5-4.3L165.8,27.3z"/>
		<path class="st1" d="M183.1,14.7h2.3l-8.2,6.7l8.6,10.6h-2.2l-7.7-9.6l-5.7,4.7V32h-1.6V14.7h1.6v10.5L183.1,14.7z"/>
		<path class="st1" d="M198.9,21.6h10.3V32h-5.3v-1.9c-0.4,0.4-0.8,0.7-1.2,0.9c-1.9,1.1-4,1.6-6.1,1.5c-5.1,0-9.9-2.9-9.9-9
			c0-0.6,0.1-1.2,0.2-1.9c0.4-2,1.4-3.9,3-5.2c2.4-2,5.6-2.6,8.8-2.6c1.3,0,2.7,0.1,4,0.4c1.9,0.3,3.7,1.3,5,2.7
			c0.4,0.5,0.8,1,1,1.6l-6.1,0.6c-1-1-2.4-1.6-3.8-1.5c-3-0.1-5.5,2.2-5.6,5.2c0,0.1,0,0.3,0,0.4c0,3.5,2.5,5.2,5.4,5.2
			c2.5,0,4.7-1.3,5-3h-4.5V21.6z"/>
		<path class="st1" d="M212.9,14.7h12.7c1.5,0,3.4,0,4.8,1.1c1.3,1.1,2,2.7,2,4.4c0,1.2-0.4,2.3-1.1,3.3c-0.8,0.9-1.8,1.4-2.9,1.6
			l4.3,6.9h-6.9l-3.5-6.3h-3.3V32h-6.2V14.7z M219.1,21.8h4.7c1,0,2.5,0,2.5-1.6c0-0.4-0.1-0.8-0.4-1.1c-0.5-0.4-1-0.5-1.6-0.5h-5.1
			V21.8z"/>
		<path class="st1" d="M252.3,15.1c3.3,1.4,5.5,4.6,5.4,8.2c0,1.7-0.4,3.3-1.2,4.7c-0.5,0.9-1.2,1.7-2.1,2.3
			c-2.4,1.9-5.1,2.3-8.3,2.3c-6,0-8.5-2.1-9.8-3.9c-1.1-1.5-1.7-3.3-1.6-5.2c0-1.9,0.5-3.8,1.6-5.4c2.4-3.4,6.5-4,9.6-4
			C248,14,250.2,14.3,252.3,15.1z M241,23.3c0,2.7,1.5,5.4,5.2,5.4c0.9,0,1.7-0.1,2.5-0.5c1.9-1,2.6-3.2,2.6-5s-0.8-5.4-5.1-5.4
			C242.3,17.9,241,21,241,23.3z"/>
		<path class="st1" d="M260.4,14.7h6.2v9.8c-0.1,0.9,0.1,1.7,0.5,2.5c0.8,1.2,2.2,1.8,3.6,1.7c1.1,0.1,2.2-0.3,3-1
			c0.8-0.9,1.2-2.2,1.1-3.4v-9.7h6.2v9.1c0,2,0,4.2-1,5.6c-1.9,2.9-6.4,3.2-9.2,3.2c-3.9,0-6-0.5-7.3-1.3c-2-1.1-3.2-3.2-3-5.5
			L260.4,14.7L260.4,14.7z"/>
		<path class="st1" d="M284.9,14.7h5.1l5.3,5.8c1.1,1.1,2.1,2.4,3.1,3.6c-0.1-2.4-0.1-3.2-0.1-5.5v-3.9h6.1V32h-5.1l-6.4-7.2
			c-0.9-1-1.2-1.4-2-2.4c0.1,3,0.1,3.7,0.1,5.9V32h-6.1L284.9,14.7L284.9,14.7z"/>
		<path class="st1" d="M308.4,14.7h9.8c1.8,0,6.8-0.1,9.2,4.1c0.8,1.4,1.2,3.1,1.2,4.7c0,1.4-0.3,2.7-0.8,4
			c-0.6,1.5-1.8,2.7-3.2,3.4c-1.6,0.8-3.4,1.2-5.2,1.1h-11L308.4,14.7L308.4,14.7z M314.5,28.1h2.7c2.1,0,3.3-0.4,4-1
			c0.9-1,1.4-2.3,1.4-3.7c0.1-1.4-0.5-2.7-1.5-3.6c-1.1-0.7-2.4-1.1-3.7-1h-2.9L314.5,28.1L314.5,28.1z"/>
		<path class="st1" d="M190.3,30.9c-2.4-1.6-3.8-4.3-3.6-7.2c0-0.6,0.1-1.2,0.2-1.9 M186.9,21.8c0.4-2,1.4-3.9,3-5.2
			c2.4-2,5.6-2.6,8.8-2.6c1.3,0,2.7,0.1,4,0.4c1.9,0.3,3.7,1.3,5,2.7c0.4,0.5,0.8,1,1,1.6l-6.1,0.6c-1-1-2.4-1.6-3.8-1.5
			c-3-0.2-5.5,2.1-5.7,5c0,0.2,0,0.4,0,0.6c0,3.5,2.5,5.2,5.4,5.2c2.5,0,4.7-1.3,5-3H199v-4h10.3v10.4H204v-1.9
			c-0.4,0.4-0.8,0.7-1.2,0.9c-1.9,1.1-4,1.6-6.1,1.5c-2.2,0-4.4-0.6-6.2-1.7"/>
		<path class="st1" d="M213,14.8h12.7c1.5,0,3.4,0,4.8,1.1c1.3,1.1,2,2.7,2,4.4c0,1.2-0.4,2.3-1.1,3.3c-0.8,0.9-1.8,1.4-2.9,1.6
			l4.3,6.9H226l-3.5-6.3h-3.3v6.3H213V14.8z M219.2,21.9h4.6c1,0,2.5,0,2.5-1.6c0-0.4-0.1-0.8-0.4-1.1c-0.5-0.4-1-0.5-1.6-0.5h-5.1
			L219.2,21.9L219.2,21.9z"/>
		<path class="st1" d="M252.4,15.2c3.3,1.4,5.5,4.6,5.4,8.2c0,1.7-0.4,3.3-1.2,4.7c-0.5,0.9-1.2,1.7-2.1,2.3
			c-2.4,1.9-5.1,2.3-8.3,2.3c-6,0-8.5-2.1-9.8-3.9c-1.1-1.5-1.7-3.3-1.6-5.2c0-1.9,0.5-3.8,1.6-5.4c2.4-3.4,6.5-4,9.6-4
			C248.1,14.1,250.3,14.4,252.4,15.2z M241.1,23.4c0,2.7,1.5,5.4,5.2,5.4c0.9,0,1.7-0.1,2.5-0.5c1.9-1,2.6-3.2,2.6-5
			s-0.8-5.4-5.1-5.4C242.4,18,241.1,21.1,241.1,23.4z"/>
		<path class="st1" d="M260.5,14.8h6.2v9.8c-0.1,0.9,0.1,1.7,0.5,2.5c0.8,1.2,2.2,1.8,3.6,1.7c1.1,0.1,2.2-0.3,3-1
			c0.8-0.9,1.2-2.2,1.1-3.4v-9.7h6.2v9.1c0,2,0,4.2-1,5.6c-1.9,2.9-6.5,3.2-9.2,3.2c-3.9,0-6-0.5-7.3-1.3c-2-1.1-3.2-3.2-3-5.5
			L260.5,14.8L260.5,14.8z"/>
		<path class="st1" d="M285,14.8h5.1l5.3,5.8c1.1,1.1,2.1,2.4,3.1,3.6c-0.1-2.4-0.1-3.2-0.1-5.5v-3.9h6.1v17.3h-5.1L293,25
			c-0.9-1-1.2-1.4-2-2.4c0.1,3,0.1,3.7,0.1,5.9v3.7H285V14.8z"/>
		<path class="st1" d="M324.7,31c-1.6,0.8-3.4,1.2-5.2,1.1h-11v-6.8 M308.5,25.3V14.8h9.8c1.8,0,6.8-0.1,9.2,4.1
			c0.8,1.4,1.2,3.1,1.2,4.7c0,1.4-0.3,2.7-0.8,4c-0.6,1.5-1.8,2.7-3.2,3.4 M314.5,28.2h2.7c2.1,0,3.3-0.4,4-1c0.9-1,1.4-2.3,1.4-3.7
			c0.1-1.4-0.5-2.7-1.5-3.6c-1.1-0.7-2.4-1.1-3.7-1h-2.9L314.5,28.2L314.5,28.2z"/>
	</g>
	
		<image style="overflow:visible;enable-background:new    ;" width="68" height="56" xlink:href="A096BBFD8D15BAB1.png"  transform="matrix(0.9853 0 0 0.9821 0 0)">
	</image>
	<path class="st2" d="M30.6,47c-6-12-28.4-13.9-28.4-13.9V3.6c9.4-1.3,18.9-2,28.4-1.9c9.5-0.1,19,0.5,28.4,1.9v29.6
		C59,33.1,36.6,35,30.6,47z"/>
	
		<linearGradient id="SVGID_1_" gradientUnits="userSpaceOnUse" x1="177.5908" y1="24.0015" x2="234.2908" y2="-7.3485" gradientTransform="matrix(1 0 0 -1 -175 26.71)">
		<stop  offset="0" style="stop-color:#404041"/>
		<stop  offset="0.26" style="stop-color:#FFFFFF"/>
		<stop  offset="0.31" style="stop-color:#C5C5C5"/>
		<stop  offset="0.37" style="stop-color:#8C8C8C"/>
		<stop  offset="0.42" style="stop-color:#5F5F5F"/>
		<stop  offset="0.47" style="stop-color:#3F3F3F"/>
		<stop  offset="0.51" style="stop-color:#2B2B2B"/>
		<stop  offset="0.54" style="stop-color:#242424"/>
		<stop  offset="0.6" style="stop-color:#6F6F6F"/>
		<stop  offset="0.66" style="stop-color:#BCBCBC"/>
		<stop  offset="0.71" style="stop-color:#ECECEC"/>
		<stop  offset="0.73" style="stop-color:#FFFFFF"/>
		<stop  offset="0.76" style="stop-color:#F7F8F8"/>
		<stop  offset="0.8" style="stop-color:#E2E3E3"/>
		<stop  offset="0.85" style="stop-color:#C0C2C1"/>
		<stop  offset="0.91" style="stop-color:#909493"/>
		<stop  offset="0.97" style="stop-color:#545A58"/>
		<stop  offset="1" style="stop-color:#323937"/>
	</linearGradient>
	<path class="st3" d="M30.2,46.6c-6-12-28.4-13.9-28.4-13.9V3.2c9.4-1.3,18.9-1.9,28.4-1.8c9.5-0.1,19,0.5,28.4,1.8v29.6
		C58.6,32.8,36.2,34.6,30.2,46.6z"/>
	<path class="st2" d="M30.2,3.8C21.6,3.7,12.9,4.3,4.4,5.5v25.6c0,0,20.4,1.8,25.9,12.5c5.5-10.7,25.8-12.4,25.8-12.4V5.5
		C47.5,4.3,38.9,3.7,30.2,3.8z"/>
	
		<radialGradient id="SVGID_2_" cx="194.69" cy="32.47" r="70.53" gradientTransform="matrix(1 0 0 -1 -175 26.71)" gradientUnits="userSpaceOnUse">
		<stop  offset="0" style="stop-color:#FFFFFF"/>
		<stop  offset="2.000000e-02" style="stop-color:#F0F0F0"/>
		<stop  offset="7.000000e-02" style="stop-color:#C6C4C5"/>
		<stop  offset="0.13" style="stop-color:#9F9D9D"/>
		<stop  offset="0.19" style="stop-color:#7D7B7B"/>
		<stop  offset="0.26" style="stop-color:#615E5F"/>
		<stop  offset="0.34" style="stop-color:#4A4748"/>
		<stop  offset="0.43" style="stop-color:#383536"/>
		<stop  offset="0.53" style="stop-color:#2C2829"/>
		<stop  offset="0.67" style="stop-color:#252122"/>
		<stop  offset="1" style="stop-color:#231F20"/>
	</radialGradient>
	<path class="st4" d="M6.1,7.3c0,0,18.1-4.4,48.6,0v6.9L6.1,25.3V7.3z"/>
	
		<linearGradient id="SVGID_3_" gradientUnits="userSpaceOnUse" x1="185.45" y1="7.7914" x2="224.69" y2="7.7914" gradientTransform="matrix(1 0 0 -1 -175 26.71)">
		<stop  offset="0" style="stop-color:#F9F9F9"/>
		<stop  offset="8.000000e-02" style="stop-color:#F3F4F4"/>
		<stop  offset="0.17" style="stop-color:#E4E4E4"/>
		<stop  offset="0.28" style="stop-color:#CACACB"/>
		<stop  offset="0.4" style="stop-color:#A5A6A7"/>
		<stop  offset="0.52" style="stop-color:#77787A"/>
		<stop  offset="0.59" style="stop-color:#5A5B5E"/>
		<stop  offset="0.63" style="stop-color:#48494B"/>
		<stop  offset="0.69" style="stop-color:#363737"/>
		<stop  offset="0.73" style="stop-color:#303030"/>
		<stop  offset="0.78" style="stop-color:#4C4C4C"/>
		<stop  offset="0.88" style="stop-color:#949494"/>
		<stop  offset="1" style="stop-color:#E8E8E8"/>
	</linearGradient>
	<path class="st5" d="M29.9,9.1c6.6,0,13.2,0.3,19.8,1.1v3.8c-6.6-0.7-13.2-1.1-19.9-1.1c-11.1,0-13.9,0.7-13.9,0.7V17h33.8v10.5
		c0,0-6.4,1.2-19.8,1.2s-19.4-1.6-19.4-1.6V23c6.3,1.3,12.8,1.9,19.3,1.9c11.1,0,14.5-0.6,14.5-0.6v-3.3H10.4V10.6
		C10.4,10.6,16,9.1,29.9,9.1z"/>
	<g>
		<polygon class="st6" points="44.5,24.3 44.1,24.1 44.1,20.8 44.5,21 		"/>
		<g>
			<g>
				<defs>
					<path id="SVGID_4_" d="M30,24.8l-0.4-0.2c11,0,14.4-0.5,14.5-0.5l0.4,0.2C44.3,24.4,41,24.9,30,24.8z"/>
				</defs>
				<clipPath id="SVGID_5_">
					<use xlink:href="#SVGID_4_"  style="overflow:visible;"/>
				</clipPath>
				<g class="st7">
					<g>
						<path class="st8" d="M30,24.8l-0.4-0.2c2.8,0,5,0,6.9-0.1l0.4,0.2C35,24.8,32.8,24.9,30,24.8"/>
						<path class="st9" d="M36.8,24.8l-0.4-0.2c2.6,0,5.1-0.2,7.6-0.5l0.4,0.2C41.9,24.6,39.4,24.8,36.8,24.8"/>
					</g>
				</g>
			</g>
		</g>
		<g>
			<g>
				<defs>
					<path id="SVGID_6_" d="M30.1,9.1l-0.4-0.2c6.6,0,13.2,0.4,19.8,1.2l0.4,0.2C43.3,9.5,36.7,9.1,30.1,9.1z"/>
				</defs>
				<clipPath id="SVGID_7_">
					<use xlink:href="#SVGID_6_"  style="overflow:visible;"/>
				</clipPath>
				<g class="st10">
					<g>
						<path class="st8" d="M30.1,9.1l-0.4-0.2c6.6,0,13.1,0.4,19.7,1.2l0.4,0.2C43.2,9.5,36.7,9.1,30.1,9.1"/>
						<path class="st11" d="M49.8,10.3l-0.4-0.2h0.1l0.4,0.2H49.8"/>
					</g>
				</g>
			</g>
		</g>
		<polygon class="st12" points="16.1,17 15.7,16.8 49.5,16.9 49.9,17.1 		"/>
		<polygon class="st6" points="10.7,27.1 10.3,26.9 10.4,22.7 10.7,22.9 		"/>
		<g>
			<g>
				<defs>
					<path id="SVGID_8_" d="M10.7,22.9l-0.4-0.2c6.3,1.3,12.8,1.9,19.2,1.9l0.4,0.2C23.5,24.9,17.1,24.2,10.7,22.9z"/>
				</defs>
				<clipPath id="SVGID_9_">
					<use xlink:href="#SVGID_8_"  style="overflow:visible;"/>
				</clipPath>
				<g class="st13">
					<g>
						<path class="st11" d="M10.7,22.9l-0.4-0.2c0.2,0,2.2,0.5,5.5,1l0.4,0.2C12.9,23.5,10.9,23,10.7,22.9"/>
						<path class="st8" d="M16.2,23.9l-0.4-0.2c4.6,0.6,9.1,1,13.7,1l0.4,0.1C25.4,24.8,20.8,24.5,16.2,23.9"/>
					</g>
				</g>
			</g>
		</g>
		<polygon class="st6" points="10.6,20.9 10.3,20.7 10.3,10.4 10.7,10.6 		"/>
		<g>
			<g>
				<defs>
					<path id="SVGID_10_" d="M10.7,10.6l-0.4-0.2c0.3-0.1,5.5-1.5,19.4-1.4l0.4,0.2C16.2,9.1,11,10.5,10.7,10.6z"/>
				</defs>
				<clipPath id="SVGID_11_">
					<use xlink:href="#SVGID_10_"  style="overflow:visible;"/>
				</clipPath>
				<g class="st14">
					<g>
						<path class="st15" d="M10.7,10.6l-0.4-0.2c0.1,0,0.4-0.1,1.1-0.2l0.4,0.2C11.1,10.5,10.8,10.5,10.7,10.6"/>
						<path class="st9" d="M11.8,10.3l-0.4-0.2C15.9,9.4,20.4,9,24.9,9l0.4,0.2C20.7,9.2,16.3,9.6,11.8,10.3"/>
						<path class="st8" d="M25.2,9.2L24.8,9c1.5,0,3.1,0,4.9,0l0.4,0.2C28.3,9.2,26.7,9.2,25.2,9.2"/>
					</g>
				</g>
			</g>
		</g>
		<path class="st16" d="M10.7,10.6c0.3-0.1,5.5-1.5,19.4-1.4c6.6,0,13.2,0.4,19.8,1.2v3.8C43.3,13.4,36.6,13,30,13
			c-11,0-13.8,0.6-13.9,0.6V17l33.8,0.1v10.5c-0.4,0.1-6.5,1.2-19.9,1.1s-19-1.6-19.3-1.6v-4.2c6.4,1.3,12.8,2,19.3,1.9
			c11,0,14.4-0.5,14.5-0.5V21l-33.8-0.1L10.7,10.6z"/>
		<g>
			<g>
				<defs>
					<path id="SVGID_12_" d="M10.7,10.6c0.3-0.1,5.5-1.5,19.4-1.4c6.6,0,13.2,0.4,19.8,1.2v3.8C43.3,13.4,36.6,13,30,13
						c-11,0-13.8,0.6-13.9,0.6V17l33.8,0.1v10.5c-0.4,0.1-6.5,1.2-19.9,1.1s-19-1.6-19.3-1.6v-4.2c6.4,1.3,12.8,2,19.3,1.9
						c11,0,14.4-0.5,14.5-0.5V21l-33.8-0.1L10.7,10.6z"/>
				</defs>
				<clipPath id="SVGID_13_">
					<use xlink:href="#SVGID_12_"  style="overflow:visible;"/>
				</clipPath>
				<g class="st17">
					<g>
						<defs>
							<polyline id="SVGID_14_" points="49.9,14.1 49.9,14.1 49.7,14.1 49.3,14.1 48.8,14 48.1,13.9 47.3,13.8 46.3,13.8 45.2,13.6 
								43.9,13.5 42.5,13.4 41,13.3 39.4,13.2 37.7,13.1 35.9,13.1 34,13 32.1,13 30,13 26.2,13 23.2,13 20.8,13.1 19,13.2 
								17.7,13.3 16.8,13.5 16.3,13.5 16.1,13.6 16.1,17 49.9,17.1 49.8,27.6 49.7,27.6 49.4,27.7 49,27.7 48.5,27.8 47.8,27.9 
								46.9,28 45.9,28.1 44.8,28.2 43.5,28.3 42.1,28.4 40.5,28.5 38.7,28.6 36.8,28.7 34.7,28.7 32.4,28.8 30,28.8 30,28.8 
								25.4,28.7 21.4,28.5 18.1,28.2 15.5,28 13.4,27.7 12,27.4 11.1,27.2 10.7,27.1 10.7,22.9 11.2,23 12.4,23.3 14.1,23.6 
								16.4,23.9 19.1,24.3 22.4,24.5 26,24.8 30,24.8 33.8,24.8 36.9,24.8 39.4,24.7 41.3,24.6 42.7,24.5 43.7,24.4 44.3,24.4 
								44.5,24.3 44.5,21 10.6,20.9 10.7,10.6 10.8,10.5 11,10.5 11.4,10.4 11.9,10.3 12.5,10.2 13.3,10.1 14.2,9.9 15.3,9.8 
								16.5,9.7 17.9,9.6 19.5,9.4 21.3,9.3 23.2,9.2 25.3,9.2 27.6,9.1 30.1,9.1 30.1,9.1 32.3,9.2 34.3,9.2 36.3,9.3 38.1,9.3 
								39.8,9.4 41.4,9.5 42.9,9.6 44.3,9.7 45.5,9.8 46.6,9.9 47.5,10 48.3,10.1 48.9,10.2 49.4,10.3 49.7,10.3 49.9,10.3 
								49.9,14.1 							"/>
						</defs>
						<clipPath id="SVGID_15_">
							<use xlink:href="#SVGID_14_"  style="overflow:visible;"/>
						</clipPath>
						<g class="st18">
							
								<image style="overflow:visible;enable-background:new    ;" width="41" height="21" xlink:href="A096BBFD8D15BAB7.png"  transform="matrix(0.9756 0 0 0.9524 10.65 9.15)">
							</image>
						</g>
					</g>
				</g>
			</g>
		</g>
	</g>
</g>
</svg>
